#!OML:ASF I:\golf\golf\golf 2\Subject 1\2002-09-07\Subject1.ASF
:FULLY-SPECIFIED
:DEGREES
545
root 0.934155 17.8725 -7.05714 6.96968 -2.23853 -7.92387
lowerback -7.02694 0.519724 -2.43559
upperback -1.85901 0.760456 4.40517
thorax 1.92405 0.375144 6.0252
lowerneck -24.7992 -5.22113 -2.80986
upperneck 22.0109 -7.27811 3.64518
head 11.5207 -3.03664 0.569771
rclavicle -1.38956e-014 -7.70291e-016
rhumerus -27.3547 4.00935 -86.9482
rradius 33.3613
rwrist -10.6568
rhand -18.0747 9.89458
rfingers 7.12502
rthumb 8.19825 -19.9264
lclavicle -1.38956e-014 -7.70291e-016
lhumerus -25.8522 -1.10348 91.5386
lradius 33.7489
lwrist 6.7974
lhand -6.56031 31.4426
lfingers 7.12502
lthumb 19.2937 60.5055
rfemur -15.7037 -1.56241 27.0736
rtibia 30.1292
rfoot -16.0435 -6.13692
rtoes 4.76114
lfemur -13.3292 1.34043 -7.65729
ltibia 32.1551
lfoot -18.7713 11.2998
ltoes -12.9867
546
root 0.919646 17.8713 -7.05827 6.91758 -2.33081 -8.05197
lowerback -6.94295 0.516624 -2.26728
upperback -1.85395 0.742594 4.46388
thorax 1.8863 0.367316 5.98741
lowerneck -24.6521 -5.29217 -2.84362
upperneck 21.9981 -7.35303 3.59004
head 11.4898 -3.08364 0.545063
rclavicle -1.51865e-014 -2.89729e-014
rhumerus -27.3238 4.06239 -86.9345
rradius 33.0949
rwrist -10.5757
rhand -18.1544 9.90837
rfingers 7.12502
rthumb 8.12136 -19.9156
lclavicle -1.51865e-014 -2.89729e-014
lhumerus -25.8561 -0.73409 91.4389
lradius 33.5539
lwrist 5.7406
lhand -7.09313 29.4105
lfingers 7.12502
lthumb 18.7813 58.5238
rfemur -15.6603 -1.58628 27.26
rtibia 30.158
rfoot -16.036 -6.08352
rtoes 4.20867
lfemur -13.2411 1.2852 -7.46995
ltibia 32.1672
lfoot -18.7755 11.4406
ltoes -13.1409
547
root 0.903427 17.8712 -7.06076 6.88787 -2.40273 -8.17648
lowerback -6.77164 0.535596 -2.0996
upperback -1.93489 0.758199 4.47471
thorax 1.70748 0.38099 5.89891
lowerneck -24.4131 -5.39023 -2.8954
upperneck 22.0591 -7.49287 3.62795
head 11.4776 -3.14932 0.547618
rclavicle -1.40674e-014 -1.59028e-014
rhumerus -27.4464 3.83169 -86.9176
rradius 32.8069
rwrist -10.3085
rhand -18.2203 10.2647
rfingers 7.12502
rthumb 8.05773 -19.5617
lclavicle -1.40674e-014 -1.59028e-014
lhumerus -26.1246 -0.763132 91.3607
lradius 33.5877
lwrist 5.35378
lhand -6.91226 29.7522
lfingers 7.12502
lthumb 18.9552 58.8486
rfemur -15.6193 -1.48967 27.454
rtibia 30.1512
rfoot -16.0068 -6.12983
rtoes 4.18599
lfemur -13.2114 1.40665 -7.27422
ltibia 32.204
lfoot -18.806 11.4313
ltoes -12.9613
548
root 0.885064 17.8713 -7.06226 6.95318 -2.46198 -8.25378
lowerback -6.80065 0.56656 -2.04649
upperback -1.95661 0.7965 4.47314
thorax 1.69748 0.400894 5.87005
lowerneck -24.2616 -5.55422 -2.96787
upperneck 22.0498 -7.73009 3.73235
head 11.4628 -3.25129 0.559733
rclavicle 7.53421e-015 -9.01985e-015
rhumerus -27.4004 3.36151 -86.8458
rradius 32.4585
rwrist -9.94452
rhand -18.2612 10.632
rfingers 7.12502
rthumb 8.01828 -19.1959
lclavicle 7.53421e-015 -9.01985e-015
lhumerus -26.2984 -1.1313 91.4055
lradius 33.7919
lwrist 5.57488
lhand -6.27269 30.543
lfingers 7.12502
lthumb 19.5702 59.578
rfemur -15.6668 -1.3637 27.6044
rtibia 30.1213
rfoot -15.9561 -6.10291
rtoes 4.83732
lfemur -13.2871 1.50331 -7.121
ltibia 32.252
lfoot -18.8548 11.3463
ltoes -12.4187
549
root 0.869564 17.8706 -7.06092 7.0237 -2.55525 -8.38441
lowerback -6.94336 0.605393 -1.91238
upperback -1.90029 0.836221 4.51131
thorax 1.83217 0.417061 5.84056
lowerneck -24.2119 -5.71492 -3.03642
upperneck 22.0063 -7.95065 3.80683
head 11.452 -3.34813 0.561166
rclavicle 3.96341e-015 1.50331e-014
rhumerus -27.2034 2.96909 -86.7181
rradius 32.1073
rwrist -9.68461
rhand -18.1692 10.7352
rfingers 7.12502
rthumb 8.10706 -19.0893
lclavicle 3.96341e-015 1.50331e-014
lhumerus -26.2398 -1.14324 91.3987
lradius 33.7052
lwrist 5.4259
lhand -6.06236 30.9268
lfingers 7.12502
lthumb 19.7724 59.9411
rfemur -15.7092 -1.32143 27.7961
rtibia 30.0921
rfoot -15.9198 -5.97359
rtoes 5.29486
lfemur -13.3265 1.44255 -6.93083
ltibia 32.2965
lfoot -18.8984 11.4548
ltoes -12.1727
550
root 0.856701 17.8693 -7.05688 6.97456 -2.66571 -8.48697
lowerback -6.95625 0.623913 -1.73874
upperback -1.82927 0.846056 4.53065
thorax 1.91426 0.419299 5.76343
lowerneck -24.251 -5.83211 -3.15645
upperneck 22.1243 -8.11348 3.93341
head 11.5224 -3.41161 0.596306
rclavicle -3.42668e-015 -4.89507e-015
rhumerus -27.0909 2.68729 -86.6286
rradius 31.7908
rwrist -9.47335
rhand -18.1322 10.8976
rfingers 7.12502
rthumb 8.14279 -18.9255
lclavicle -3.42668e-015 -4.89507e-015
lhumerus -26.1986 -0.923364 91.2488
lradius 33.4546
lwrist 4.84256
lhand -6.26105 30.5574
lfingers 7.12502
lthumb 19.5814 59.5913
rfemur -15.6263 -1.39779 27.9453
rtibia 30.0814
rfoot -15.9585 -5.83269
rtoes 5.30428
lfemur -13.2225 1.41846 -6.79405
ltibia 32.3243
lfoot -18.9051 11.7005
ltoes -12.7982
551
root 0.842404 17.8661 -7.05357 6.85269 -2.75055 -8.48237
lowerback -6.80304 0.597498 -1.73721
upperback -1.81632 0.810824 4.54234
thorax 1.84614 0.402746 5.76881
lowerneck -24.1842 -5.9511 -3.33235
upperneck 22.2765 -8.26912 4.07729
head 11.5899 -3.47585 0.650142
rclavicle -1.05492e-014 -1.41883e-014
rhumerus -27.1219 2.56399 -86.5938
rradius 31.465
rwrist -9.42753
rhand -18.4148 11.3178
rfingers 7.12502
rthumb 7.87004 -18.5157
lclavicle -1.05492e-014 -1.41883e-014
lhumerus -26.295 -0.635546 91.0834
lradius 33.2222
lwrist 4.29944
lhand -6.53479 30.0974
lfingers 7.12502
lthumb 19.3182 59.1578
rfemur -15.4806 -1.51788 27.9769
rtibia 30.0793
rfoot -16.0545 -5.65378
rtoes 5.58089
lfemur -13.063 1.48502 -6.77292
ltibia 32.3468
lfoot -18.8433 11.9094
ltoes -14.1916
552
root 0.826722 17.8622 -7.0488 6.82701 -2.81212 -8.3823
lowerback -6.73523 0.555884 -1.89701
upperback -1.8811 0.768071 4.55162
thorax 1.74359 0.384291 5.86469
lowerneck -23.9256 -6.11746 -3.5035
upperneck 22.2963 -8.48198 4.18711
head 11.572 -3.57665 0.686509
rclavicle -2.41905e-014 -5.2181e-016
rhumerus -27.2667 2.58473 -86.5511
rradius 31.2093
rwrist -9.52949
rhand -18.6272 11.5103
rfingers 7.12502
rthumb 7.66502 -18.3307
lclavicle -2.41905e-014 -5.2181e-016
lhumerus -26.5034 -0.40831 91.0048
lradius 33.0782
lwrist 4.10253
lhand -6.25188 30.3032
lfingers 7.12502
lthumb 19.5902 59.3361
rfemur -15.4364 -1.56765 27.9034
rtibia 30.0872
rfoot -16.1645 -5.42607
rtoes 6.57048
lfemur -12.9956 1.53352 -6.84859
ltibia 32.3639
lfoot -18.7691 11.9941
ltoes -14.5875
553
root 0.811228 17.8592 -7.04436 6.91585 -2.86187 -8.34703
lowerback -6.86571 0.526347 -2.00106
upperback -1.89881 0.734959 4.58212
thorax 1.79981 0.366616 5.95678
lowerneck -23.7101 -6.31102 -3.59406
upperneck 22.1901 -8.73188 4.2211
head 11.5082 -3.69892 0.676019
rclavicle 4.13138e-015 -6.40584e-014
rhumerus -27.328 2.52288 -86.4456
rradius 30.9907
rwrist -9.52243
rhand -18.7898 11.5795
rfingers 7.12502
rthumb 7.50807 -18.2672
lclavicle 4.13138e-015 -6.40584e-014
lhumerus -26.6451 -0.284951 90.9589
lradius 32.9783
lwrist 4.05252
lhand -6.43775 30.32
lfingers 7.12502
lthumb 19.4115 59.3711
rfemur -15.5241 -1.5178 27.9129
rtibia 30.1231
rfoot -16.2388 -5.35343
rtoes 7.05504
lfemur -13.0398 1.64417 -6.83717
ltibia 32.3572
lfoot -18.7442 11.8956
ltoes -13.9866
554
root 0.798004 17.8584 -7.04436 7.00397 -2.93885 -8.41526
lowerback -7.02943 0.486191 -2.01162
upperback -1.82783 0.67686 4.68551
thorax 1.96986 0.332289 6.07234
lowerneck -23.5935 -6.49344 -3.73269
upperneck 22.0441 -8.93821 4.24134
head 11.4478 -3.80626 0.673865
rclavicle 3.2485e-015 1.73937e-014
rhumerus -27.21 2.38096 -86.2498
rradius 30.6527
rwrist -9.27994
rhand -19.0889 12.0093
rfingers 7.12502
rthumb 7.21938 -17.8476
lclavicle 3.2485e-015 1.73937e-014
lhumerus -26.6511 0.0274171 90.876
lradius 32.7721
lwrist 3.87121
lhand -7.17604 29.5857
lfingers 7.12502
lthumb 18.7015 58.7067
rfemur -15.6336 -1.44082 28.034
rtibia 30.1694
rfoot -16.2797 -5.39768
rtoes 6.78246
lfemur -13.1052 1.83703 -6.71356
ltibia 32.3417
lfoot -18.7275 11.7835
ltoes -14.0392
555
root 0.787065 17.859 -7.04345 7.03073 -3.0409 -8.33672
lowerback -7.13641 0.435322 -2.10063
upperback -1.74893 0.61168 4.71895
thorax 2.11763 0.294322 6.157
lowerneck -23.5499 -6.66972 -3.92927
upperneck 22.0249 -9.14527 4.34601
head 11.4577 -3.90355 0.708302
rclavicle 2.7556e-014 2.55438e-014
rhumerus -27.0887 2.12583 -86.0819
rradius 30.2493
rwrist -8.88046
rhand -19.3146 12.5713
rfingers 7.12502
rthumb 7.00143 -17.2929
lclavicle 2.7556e-014 2.55438e-014
lhumerus -26.6239 0.22363 90.7919
lradius 32.5011
lwrist 4.12139
lhand -7.68986 29.1487
lfingers 7.12502
lthumb 18.2072 58.3166
rfemur -15.6712 -1.45796 27.9748
rtibia 30.2026
rfoot -16.4009 -5.30224
rtoes 6.89041
lfemur -13.1116 1.93016 -6.77176
ltibia 32.3376
lfoot -18.6722 11.8112
ltoes -14.2304
556
root 0.776728 17.8564 -7.04167 7.02097 -3.15829 -8.28051
lowerback -7.14554 0.432739 -2.07715
upperback -1.71598 0.606632 4.67127
thorax 2.15837 0.290291 6.09294
lowerneck -23.4998 -6.86922 -4.05948
upperneck 22.1123 -9.42267 4.46714
head 11.5084 -4.02262 0.724792
rclavicle -4.30716e-015 -2.78299e-014
rhumerus -27.0828 1.75197 -85.9939
rradius 29.9017
rwrist -8.54475
rhand -19.4988 12.9354
rfingers 7.12502
rthumb 6.8237 -16.9346
lclavicle -4.30716e-015 -2.78299e-014
lhumerus -26.6641 0.321112 90.6289
lradius 32.1538
lwrist 4.52492
lhand -7.29203 30.3001
lfingers 7.12502
lthumb 18.5899 59.4318
rfemur -15.6643 -1.45408 27.9252
rtibia 30.2313
rfoot -16.5255 -5.07002
rtoes 7.76264
lfemur -13.0655 1.9577 -6.80889
ltibia 32.3495
lfoot -18.74 11.8551
ltoes -13.7863
